<?xml version="1.0" encoding="utf-8"?>
<!-- Generator: Adobe Illustrator 19.0.0, SVG Export Plug-In . SVG Version: 6.00 Build 0)  -->
<svg version="1.1" id="Layer_1" xmlns="http://www.w3.org/2000/svg" xmlns:xlink="http://www.w3.org/1999/xlink" x="0px" y="0px"
	 viewBox="0 0 411.9 75.1" style="enable-background:new 0 0 411.9 75.1;" xml:space="preserve">
<style type="text/css">
	.st0{fill:url(#SVGID_1_);}
	.st1{fill:url(#SVGID_2_);}
	.st2{fill:url(#SVGID_3_);}
	.st3{fill:url(#SVGID_4_);}
	.st4{fill:#1D1D1B;}
	.st5{fill:url(#SVGID_5_);}
	.st6{fill:url(#SVGID_6_);}
	.st7{fill:url(#SVGID_7_);}
	.st8{fill:url(#SVGID_8_);}
	.st9{fill:url(#SVGID_9_);}
	.st10{fill:url(#SVGID_10_);}
	.st11{fill:url(#SVGID_11_);}
	.st12{fill:url(#SVGID_12_);}
	.st13{fill:url(#SVGID_13_);}
	.st14{fill:url(#SVGID_14_);}
	.st15{fill:url(#SVGID_15_);}
	.st16{fill:url(#SVGID_16_);}
	.st17{fill:url(#SVGID_17_);}
	.st18{fill:url(#SVGID_18_);}
	.st19{fill:url(#SVGID_19_);}
	.st20{opacity:0.19;}
	.st21{fill:#FFFFFF;}
	.st22{fill:#666666;}
</style>
<g>
	<g>
		<linearGradient id="SVGID_1_" gradientUnits="userSpaceOnUse" x1="-7.2317" y1="33.8121" x2="9.7625" y2="35.3929">
			<stop  offset="0" style="stop-color:#FF6F3C"/>
			<stop  offset="0.5031" style="stop-color:#E03D2E"/>
			<stop  offset="1" style="stop-color:#651200"/>
		</linearGradient>
		<path class="st0" d="M26.5,39.4l3.1-38l-1.4-0.3l-7.3,4.6c0.9,2.1,0.8,4.4-0.7,6.6c-2.4,3.3-5,6.4-7.1,9.9c-0.5,0.8-1,1.5-1.6,2
			c-1.3,2.5-2.1,5.2-2.4,8.7C8.6,38.8,6.9,46,8.4,52c1.5,5.9,6.3,11.5,11.2,15.1c4.7,3.5,9.3,4.8,14.5,6.7c0,0,0-0.1,0-0.1
			c0.1-0.3,0.2-0.6,0.3-0.9c-10-3.1-20.8-10.7-20.8-27.7c0-7,2.2-11.1,4.3-13.5l6.9,7.6L26.5,39.4z"/>
		<linearGradient id="SVGID_2_" gradientUnits="userSpaceOnUse" x1="46.313" y1="16.9933" x2="14.6967" y2="60.4656">
			<stop  offset="0" style="stop-color:#FFCF3C"/>
			<stop  offset="0.2515" style="stop-color:#FF6F3C"/>
			<stop  offset="0.5153" style="stop-color:#E03D2E"/>
			<stop  offset="1" style="stop-color:#5B1200"/>
		</linearGradient>
		<path class="st1" d="M44.5,72.8c-10.1,0-32.5-5.1-32.5-29.5c0-7,2.2-11.1,4.3-13.5l8.4,9.2l3.4-37.9L0,11.6l6.5,7.3
			c-3,5.4-4.8,11.7-4.8,18.3c0,20.9,17,37.9,37.9,37.9c6.5,0,12.5-1.6,17.9-4.5C57.6,70.6,51.6,72.8,44.5,72.8z"/>
		<linearGradient id="SVGID_3_" gradientUnits="userSpaceOnUse" x1="47.3759" y1="43.9777" x2="43.4156" y2="48.8632">
			<stop  offset="0" style="stop-color:#00143C"/>
			<stop  offset="0.5031" style="stop-color:#30438E"/>
			<stop  offset="0.7178" style="stop-color:#30438E"/>
			<stop  offset="1" style="stop-color:#30A1DD"/>
		</linearGradient>
		<path class="st2" d="M70.9,19.7c-1.2-5.9-8.3-16.1-19.6-17.9c0,0,10.8,2.5,10.8,8.9c0,5.1-6.7,12.8-11,17.2l-9.4-9.1l-1.3,1.4
			l-0.9,32.4l32.7-1.8v-2.6l-9.7-9.3C65,35.9,71.6,23.2,70.9,19.7z"/>
		<linearGradient id="SVGID_4_" gradientUnits="userSpaceOnUse" x1="39.2344" y1="54.6084" x2="69.6646" y2="16.2743">
			<stop  offset="0" style="stop-color:#00143C"/>
			<stop  offset="0.5031" style="stop-color:#30438E"/>
			<stop  offset="0.7914" style="stop-color:#30519A"/>
			<stop  offset="0.8443" style="stop-color:#3061A7"/>
			<stop  offset="0.9465" style="stop-color:#3089C9"/>
			<stop  offset="1" style="stop-color:#30A1DD"/>
		</linearGradient>
		<path class="st3" d="M72.1,22.1c0-11.2-9.5-18.5-20.8-20.3c0,0,11.7,3.2,11.7,9.6c0,5.1-7.7,14.8-12,19.2L40.3,20.3l-4.4,35.8
			l36.2-5.2l-9.7-9.3C65,38.6,72.1,29.9,72.1,22.1z"/>
		<path class="st4" d="M25.1,39.3"/>
	</g>
</g>
<g>
	<linearGradient id="SVGID_5_" gradientUnits="userSpaceOnUse" x1="98.688" y1="0.7669" x2="98.688" y2="66.0717">
		<stop  offset="0" style="stop-color:#FFCF3C"/>
		<stop  offset="0.2515" style="stop-color:#FF6F3C"/>
		<stop  offset="0.5153" style="stop-color:#E03D2E"/>
		<stop  offset="1" style="stop-color:#5B1200"/>
	</linearGradient>
	<path class="st5" d="M99.2,21.7v4.4h0.1c0.5-1.7,1.3-2.9,2.4-3.8c1.1-0.9,2.4-1.3,3.7-1.3h1.5v8.6c-0.4-0.1-0.8-0.1-1.2-0.2
		c-0.4,0-0.7-0.1-1.1-0.1c-1.6,0-2.9,0.4-3.8,1.1c-0.9,0.7-1.4,2-1.4,3.8v15h-9.2V21.7H99.2z"/>
	<linearGradient id="SVGID_6_" gradientUnits="userSpaceOnUse" x1="119.1631" y1="0.7659" x2="119.1631" y2="66.0742">
		<stop  offset="0" style="stop-color:#FFCF3C"/>
		<stop  offset="0.2515" style="stop-color:#FF6F3C"/>
		<stop  offset="0.5153" style="stop-color:#E03D2E"/>
		<stop  offset="1" style="stop-color:#5B1200"/>
	</linearGradient>
	<path class="st6" d="M116.9,40.7c0,1.5,0.3,2.5,0.8,3c0.5,0.5,1.1,0.7,1.7,0.7c0.8,0,1.5-0.3,1.9-1c0.5-0.7,0.7-1.9,0.7-3.8h8.3
		c-0.1,3.4-0.9,6-2.6,7.7c-1.7,1.7-4.4,2.6-8.2,2.6c-2.2,0-4.1-0.2-5.6-0.7c-1.5-0.5-2.7-1.3-3.6-2.4c-0.9-1.1-1.6-2.6-2-4.5
		c-0.4-1.8-0.6-4.1-0.6-6.7c0-2.7,0.2-4.9,0.7-6.7c0.4-1.8,1.1-3.3,2.1-4.5c1-1.2,2.2-2,3.6-2.5c1.5-0.5,3.3-0.8,5.3-0.8
		c1.8,0,3.4,0.2,4.8,0.7c1.4,0.4,2.5,1.2,3.5,2.2c0.9,1,1.6,2.4,2.1,4.1c0.5,1.7,0.7,3.8,0.7,6.3v2.8h-13.6V40.7z M121.5,27.6
		c-0.4-0.7-1-1-2-1c-1,0-1.6,0.3-2,1c-0.4,0.7-0.5,1.8-0.5,3.2v1.2h5v-1.2C122,29.4,121.8,28.3,121.5,27.6z"/>
	<linearGradient id="SVGID_7_" gradientUnits="userSpaceOnUse" x1="139.3076" y1="0.7672" x2="139.3076" y2="66.0729">
		<stop  offset="0" style="stop-color:#FFCF3C"/>
		<stop  offset="0.2515" style="stop-color:#FF6F3C"/>
		<stop  offset="0.5153" style="stop-color:#E03D2E"/>
		<stop  offset="1" style="stop-color:#5B1200"/>
	</linearGradient>
	<path class="st7" d="M134.4,21.7v-8.1h9.2v8.1h3.6v6.2h-3.6v13.2c0,0.8,0.2,1.3,0.5,1.7c0.4,0.3,0.9,0.5,1.7,0.5h1.4v6.1
		c-0.8,0-1.7,0-2.5,0.1c-0.8,0.1-1.7,0.1-2.4,0.1c-1.4,0-2.6-0.1-3.6-0.2c-1-0.1-1.8-0.4-2.4-0.9c-0.6-0.5-1.1-1.2-1.4-2.1
		c-0.3-0.9-0.4-2.2-0.4-3.7V27.9h-3.1v-6.2H134.4z"/>
	<linearGradient id="SVGID_8_" gradientUnits="userSpaceOnUse" x1="161.6196" y1="0.7664" x2="161.6196" y2="66.0737">
		<stop  offset="0" style="stop-color:#FFCF3C"/>
		<stop  offset="0.2515" style="stop-color:#FF6F3C"/>
		<stop  offset="0.5153" style="stop-color:#E03D2E"/>
		<stop  offset="1" style="stop-color:#5B1200"/>
	</linearGradient>
	<path class="st8" d="M159.4,21.7v18.2c0,1.2,0.2,2,0.5,2.5c0.3,0.5,0.9,0.8,1.7,0.8c0.8,0,1.4-0.3,1.7-0.8c0.3-0.5,0.5-1.3,0.5-2.5
		V21.7h9.2v27.6h-8.9V46h-0.1c-1.2,2.6-3.4,3.9-6.7,3.9c-1,0-2-0.1-2.8-0.3c-0.9-0.2-1.6-0.6-2.3-1.1c-0.6-0.6-1.2-1.3-1.5-2.3
		c-0.4-1-0.6-2.2-0.6-3.6V21.7H159.4z"/>
	<linearGradient id="SVGID_9_" gradientUnits="userSpaceOnUse" x1="185.792" y1="0.7669" x2="185.792" y2="66.0717">
		<stop  offset="0" style="stop-color:#FFCF3C"/>
		<stop  offset="0.2515" style="stop-color:#FF6F3C"/>
		<stop  offset="0.5153" style="stop-color:#E03D2E"/>
		<stop  offset="1" style="stop-color:#5B1200"/>
	</linearGradient>
	<path class="st9" d="M186.4,21.7v4.4h0.1c0.5-1.7,1.3-2.9,2.4-3.8c1.1-0.9,2.4-1.3,3.7-1.3h1.5v8.6c-0.4-0.1-0.8-0.1-1.2-0.2
		c-0.4,0-0.7-0.1-1.1-0.1c-1.6,0-2.9,0.4-3.8,1.1c-0.9,0.7-1.4,2-1.4,3.8v15h-9.2V21.7H186.4z"/>
	<linearGradient id="SVGID_10_" gradientUnits="userSpaceOnUse" x1="208.1304" y1="0.7669" x2="208.1304" y2="66.0717">
		<stop  offset="0" style="stop-color:#FFCF3C"/>
		<stop  offset="0.2515" style="stop-color:#FF6F3C"/>
		<stop  offset="0.5153" style="stop-color:#E03D2E"/>
		<stop  offset="1" style="stop-color:#5B1200"/>
	</linearGradient>
	<path class="st10" d="M205.6,21.7v3.4h0.1c1.2-2.7,3.4-4.1,6.7-4.1c1,0,2,0.1,2.8,0.3c0.9,0.2,1.6,0.6,2.3,1.2
		c0.6,0.6,1.2,1.3,1.5,2.3c0.4,1,0.6,2.2,0.6,3.7v20.8h-9.2V31.1c0-1.2-0.2-2-0.5-2.5c-0.3-0.5-0.9-0.8-1.7-0.8s-1.4,0.3-1.7,0.8
		c-0.3,0.5-0.5,1.3-0.5,2.5v18.2h-9.2V21.7H205.6z"/>
	<linearGradient id="SVGID_11_" gradientUnits="userSpaceOnUse" x1="227.9677" y1="58.8299" x2="227.9677" y2="0.7658">
		<stop  offset="0" style="stop-color:#00143C"/>
		<stop  offset="0.5031" style="stop-color:#30438E"/>
		<stop  offset="0.7914" style="stop-color:#30519A"/>
		<stop  offset="0.8443" style="stop-color:#3061A7"/>
		<stop  offset="0.9465" style="stop-color:#3089C9"/>
		<stop  offset="1" style="stop-color:#30A1DD"/>
	</linearGradient>
	<path class="st11" d="M232.6,12.9v36.4h-9.2V12.9H232.6z"/>
	<linearGradient id="SVGID_12_" gradientUnits="userSpaceOnUse" x1="247.2959" y1="58.8315" x2="247.2959" y2="0.7658">
		<stop  offset="0" style="stop-color:#00143C"/>
		<stop  offset="0.5031" style="stop-color:#30438E"/>
		<stop  offset="0.7914" style="stop-color:#30519A"/>
		<stop  offset="0.8443" style="stop-color:#3061A7"/>
		<stop  offset="0.9465" style="stop-color:#3089C9"/>
		<stop  offset="1" style="stop-color:#30A1DD"/>
	</linearGradient>
	<path class="st12" d="M258.6,40.9c-0.3,1.7-0.8,3.3-1.6,4.6c-0.8,1.3-2,2.4-3.5,3.2c-1.5,0.8-3.6,1.2-6.2,1.2
		c-2.7,0-4.8-0.4-6.4-1.1c-1.6-0.7-2.7-1.8-3.5-3.1c-0.8-1.3-1.3-2.8-1.5-4.6c-0.2-1.8-0.3-3.6-0.3-5.6c0-1.8,0.1-3.6,0.4-5.3
		c0.3-1.7,0.8-3.3,1.6-4.6c0.8-1.4,2-2.5,3.5-3.3c1.5-0.8,3.6-1.2,6.2-1.2c2.7,0,4.8,0.4,6.4,1.1c1.6,0.8,2.7,1.8,3.5,3.1
		c0.8,1.3,1.3,2.9,1.5,4.6c0.2,1.8,0.3,3.6,0.3,5.6C259,37.4,258.9,39.1,258.6,40.9z M244.8,39.8c0.1,1.1,0.2,2,0.4,2.6
		c0.2,0.6,0.5,1.1,0.8,1.3c0.3,0.2,0.7,0.4,1.2,0.4c0.5,0,0.9-0.1,1.3-0.4c0.3-0.2,0.6-0.7,0.8-1.3c0.2-0.6,0.3-1.5,0.4-2.6
		c0.1-1.1,0.1-2.5,0.1-4.3c0-1.7,0-3.2-0.1-4.3c-0.1-1.1-0.2-2-0.4-2.7c-0.2-0.6-0.5-1.1-0.8-1.3c-0.3-0.2-0.8-0.4-1.3-0.4
		c-0.5,0-0.9,0.1-1.2,0.4c-0.3,0.2-0.6,0.7-0.8,1.3c-0.2,0.6-0.3,1.5-0.4,2.7c-0.1,1.1-0.1,2.5-0.1,4.3
		C244.7,37.3,244.8,38.7,244.8,39.8z"/>
	<linearGradient id="SVGID_13_" gradientUnits="userSpaceOnUse" x1="272.4649" y1="58.8315" x2="272.4649" y2="0.7658">
		<stop  offset="0" style="stop-color:#00143C"/>
		<stop  offset="0.5031" style="stop-color:#30438E"/>
		<stop  offset="0.7914" style="stop-color:#30519A"/>
		<stop  offset="0.8443" style="stop-color:#3061A7"/>
		<stop  offset="0.9465" style="stop-color:#3089C9"/>
		<stop  offset="1" style="stop-color:#30A1DD"/>
	</linearGradient>
	<path class="st13" d="M274.9,47.8c-0.1-0.5-0.1-1.1-0.2-1.6h-0.1c-0.5,1.2-1.3,2.1-2.4,2.8c-1.1,0.6-2.4,0.9-3.8,0.9
		c-1.4,0-2.6-0.2-3.5-0.5c-1-0.4-1.8-0.9-2.4-1.6c-0.6-0.7-1.1-1.6-1.3-2.5c-0.3-1-0.4-2.1-0.4-3.3c0-1.3,0.1-2.4,0.4-3.4
		c0.3-1,0.7-1.8,1.2-2.5c0.6-0.7,1.4-1.3,2.3-1.8c1-0.5,2.2-0.9,3.7-1.2l3.6-0.9c1-0.2,1.7-0.6,2.1-1c0.4-0.5,0.6-1.1,0.6-2
		c0-1.7-0.8-2.6-2.3-2.6c-0.9,0-1.5,0.2-1.9,0.7c-0.4,0.5-0.6,1.5-0.7,2.9h-8c0-2,0.4-3.6,1.1-4.8c0.7-1.2,1.6-2.1,2.7-2.8
		c1.1-0.7,2.2-1.1,3.4-1.3c1.2-0.2,2.4-0.3,3.4-0.3c1.6,0,3.1,0.1,4.4,0.4c1.3,0.3,2.5,0.7,3.5,1.4c1,0.7,1.7,1.6,2.2,2.7
		c0.5,1.1,0.8,2.6,0.8,4.4v13.5c0,1.3,0.1,2.4,0.2,3.4c0.1,1,0.3,1.8,0.7,2.5h-8.9C275.1,48.8,275,48.3,274.9,47.8z M274.1,42.7
		c0.4-0.7,0.7-1.9,0.7-3.4V36h-0.1c-0.3,0.4-0.7,0.6-1.3,0.7c-0.6,0.1-1.2,0.3-1.9,0.6c-0.7,0.3-1.2,0.8-1.5,1.4
		c-0.3,0.6-0.4,1.3-0.4,2.2c0,0.9,0.2,1.6,0.6,2.2c0.4,0.5,1,0.8,1.6,0.8C272.9,43.9,273.6,43.5,274.1,42.7z"/>
	<linearGradient id="SVGID_14_" gradientUnits="userSpaceOnUse" x1="297.2988" y1="58.8317" x2="297.2988" y2="0.7651">
		<stop  offset="0" style="stop-color:#00143C"/>
		<stop  offset="0.5031" style="stop-color:#30438E"/>
		<stop  offset="0.7914" style="stop-color:#30519A"/>
		<stop  offset="0.8443" style="stop-color:#3061A7"/>
		<stop  offset="0.9465" style="stop-color:#3089C9"/>
		<stop  offset="1" style="stop-color:#30A1DD"/>
	</linearGradient>
	<path class="st14" d="M309.1,12.9v36.4h-8.9v-3.8h-0.1c-0.6,1.5-1.4,2.6-2.3,3.3c-1,0.7-2.3,1-3.9,1c-3.1,0-5.2-1.2-6.4-3.6
		c-1.2-2.4-1.8-6.2-1.8-11.3c0-2.6,0.2-4.8,0.6-6.6c0.4-1.8,1-3.2,1.7-4.3c0.7-1.1,1.6-1.9,2.7-2.3c1.1-0.5,2.2-0.7,3.5-0.7
		c1.3,0,2.5,0.3,3.5,0.8c1,0.6,1.8,1.6,2.3,3h0.1V12.9H309.1z M294.8,39.2c0.1,1,0.2,1.8,0.4,2.4c0.2,0.6,0.5,1,0.8,1.3
		c0.3,0.2,0.8,0.4,1.3,0.4c0.5,0,0.9-0.1,1.3-0.4c0.3-0.2,0.6-0.7,0.8-1.3c0.2-0.6,0.3-1.4,0.4-2.4c0.1-1,0.1-2.2,0.1-3.7
		c0-1.5,0-2.7-0.1-3.7c-0.1-1-0.2-1.8-0.4-2.4c-0.2-0.6-0.5-1-0.8-1.2c-0.3-0.2-0.8-0.4-1.3-0.4c-0.5,0-1,0.1-1.3,0.4
		c-0.3,0.2-0.6,0.7-0.8,1.2c-0.2,0.6-0.3,1.4-0.4,2.4c-0.1,1-0.1,2.2-0.1,3.7C294.7,37,294.8,38.2,294.8,39.2z"/>
	<linearGradient id="SVGID_15_" gradientUnits="userSpaceOnUse" x1="321.8305" y1="58.8315" x2="321.8305" y2="0.7658">
		<stop  offset="0" style="stop-color:#00143C"/>
		<stop  offset="0.5031" style="stop-color:#30438E"/>
		<stop  offset="0.7914" style="stop-color:#30519A"/>
		<stop  offset="0.8443" style="stop-color:#3061A7"/>
		<stop  offset="0.9465" style="stop-color:#3089C9"/>
		<stop  offset="1" style="stop-color:#30A1DD"/>
	</linearGradient>
	<path class="st15" d="M319.1,42.3c0.1,0.5,0.3,0.9,0.5,1.2c0.4,0.6,1.1,1,1.9,1c0.7,0,1.3-0.2,1.9-0.6c0.5-0.4,0.8-1,0.8-1.7
		c0-0.8-0.3-1.4-1-1.9c-0.7-0.4-1.5-0.8-2.5-1.2c-1-0.3-2-0.7-3.2-1.1c-1.1-0.4-2.2-0.9-3.2-1.5c-1-0.6-1.8-1.5-2.5-2.6
		c-0.7-1.1-1-2.5-1-4.2c0-1.2,0.2-2.4,0.7-3.4c0.4-1,1.1-1.9,2-2.7c0.9-0.8,2-1.4,3.4-1.8c1.4-0.4,3-0.7,4.9-0.7
		c6.9,0,10.4,2.9,10.4,8.7h-8c0-1.2-0.2-2-0.6-2.4c-0.4-0.4-1-0.6-1.8-0.6c-0.7,0-1.2,0.2-1.7,0.6c-0.4,0.4-0.7,0.9-0.7,1.6
		c0,0.8,0.3,1.4,1,1.8c0.7,0.4,1.5,0.7,2.5,1c1,0.3,2,0.6,3.2,1c1.1,0.3,2.2,0.8,3.2,1.5c1,0.6,1.8,1.5,2.5,2.5c0.7,1.1,1,2.5,1,4.3
		c0,1.4-0.3,2.6-0.8,3.7c-0.5,1.1-1.2,2.1-2.2,2.9c-0.9,0.8-2.1,1.4-3.5,1.8c-1.4,0.4-2.9,0.6-4.7,0.6c-3.8,0-6.6-0.8-8.3-2.3
		c-1.7-1.5-2.5-3.8-2.5-6.8h8.1C318.9,41.3,319,41.8,319.1,42.3z"/>
	<linearGradient id="SVGID_16_" gradientUnits="userSpaceOnUse" x1="340.2646" y1="58.8298" x2="340.2646" y2="0.7665">
		<stop  offset="0" style="stop-color:#00143C"/>
		<stop  offset="0.5031" style="stop-color:#30438E"/>
		<stop  offset="0.7914" style="stop-color:#30519A"/>
		<stop  offset="0.8443" style="stop-color:#3061A7"/>
		<stop  offset="0.9465" style="stop-color:#3089C9"/>
		<stop  offset="1" style="stop-color:#30A1DD"/>
	</linearGradient>
	<path class="st16" d="M344.5,39.2v10.1H336V39.2H344.5z"/>
	<linearGradient id="SVGID_17_" gradientUnits="userSpaceOnUse" x1="359.1348" y1="58.8297" x2="359.1348" y2="0.767">
		<stop  offset="0" style="stop-color:#00143C"/>
		<stop  offset="0.5031" style="stop-color:#30438E"/>
		<stop  offset="0.7914" style="stop-color:#30519A"/>
		<stop  offset="0.8443" style="stop-color:#3061A7"/>
		<stop  offset="0.9465" style="stop-color:#3089C9"/>
		<stop  offset="1" style="stop-color:#30A1DD"/>
	</linearGradient>
	<path class="st17" d="M356.6,21.7v3.4h0.1c1.2-2.7,3.4-4.1,6.7-4.1c1,0,2,0.1,2.8,0.3c0.9,0.2,1.6,0.6,2.3,1.2
		c0.6,0.6,1.2,1.3,1.5,2.3c0.4,1,0.6,2.2,0.6,3.7v20.8h-9.2V31.1c0-1.2-0.2-2-0.5-2.5c-0.3-0.5-0.9-0.8-1.7-0.8s-1.4,0.3-1.7,0.8
		c-0.3,0.5-0.5,1.3-0.5,2.5v18.2h-9.2V21.7H356.6z"/>
	<linearGradient id="SVGID_18_" gradientUnits="userSpaceOnUse" x1="383.792" y1="58.8315" x2="383.792" y2="0.7658">
		<stop  offset="0" style="stop-color:#00143C"/>
		<stop  offset="0.5031" style="stop-color:#30438E"/>
		<stop  offset="0.7914" style="stop-color:#30519A"/>
		<stop  offset="0.8443" style="stop-color:#3061A7"/>
		<stop  offset="0.9465" style="stop-color:#3089C9"/>
		<stop  offset="1" style="stop-color:#30A1DD"/>
	</linearGradient>
	<path class="st18" d="M381.6,40.7c0,1.5,0.3,2.5,0.8,3c0.5,0.5,1.1,0.7,1.7,0.7c0.8,0,1.5-0.3,1.9-1c0.5-0.7,0.7-1.9,0.7-3.8h8.3
		c-0.1,3.4-0.9,6-2.6,7.7c-1.7,1.7-4.4,2.6-8.2,2.6c-2.2,0-4.1-0.2-5.6-0.7c-1.5-0.5-2.7-1.3-3.6-2.4c-0.9-1.1-1.6-2.6-2-4.5
		c-0.4-1.8-0.6-4.1-0.6-6.7c0-2.7,0.2-4.9,0.7-6.7c0.4-1.8,1.1-3.3,2.1-4.5c1-1.2,2.2-2,3.6-2.5c1.5-0.5,3.3-0.8,5.3-0.8
		c1.8,0,3.4,0.2,4.8,0.7c1.4,0.4,2.5,1.2,3.5,2.2c0.9,1,1.6,2.4,2.1,4.1c0.5,1.7,0.7,3.8,0.7,6.3v2.8h-13.6V40.7z M386.1,27.6
		c-0.4-0.7-1-1-2-1c-1,0-1.6,0.3-2,1c-0.4,0.7-0.5,1.8-0.5,3.2v1.2h5v-1.2C386.6,29.4,386.4,28.3,386.1,27.6z"/>
	<linearGradient id="SVGID_19_" gradientUnits="userSpaceOnUse" x1="403.9366" y1="58.8307" x2="403.9366" y2="0.7672">
		<stop  offset="0" style="stop-color:#00143C"/>
		<stop  offset="0.5031" style="stop-color:#30438E"/>
		<stop  offset="0.7914" style="stop-color:#30519A"/>
		<stop  offset="0.8443" style="stop-color:#3061A7"/>
		<stop  offset="0.9465" style="stop-color:#3089C9"/>
		<stop  offset="1" style="stop-color:#30A1DD"/>
	</linearGradient>
	<path class="st19" d="M399.1,21.7v-8.1h9.2v8.1h3.6v6.2h-3.6v13.2c0,0.8,0.2,1.3,0.5,1.7c0.4,0.3,0.9,0.5,1.7,0.5h1.4v6.1
		c-0.8,0-1.7,0-2.5,0.1c-0.8,0.1-1.7,0.1-2.4,0.1c-1.4,0-2.6-0.1-3.6-0.2c-1-0.1-1.8-0.4-2.4-0.9c-0.6-0.5-1.1-1.2-1.4-2.1
		c-0.3-0.9-0.4-2.2-0.4-3.7V27.9H396v-6.2H399.1z"/>
</g>
<g class="st20">
	<path class="st21" d="M309.1,35.8V12.9h-9.2v11.9h-0.1c-0.5-1.4-1.2-2.4-2.3-3c-1-0.6-2.2-0.8-3.5-0.8c-1.3,0-2.4,0.2-3.5,0.7
		c-1.1,0.5-1.9,1.3-2.7,2.3c-0.7,1.1-1.3,2.5-1.7,4.3c-0.4,1.8-0.6,4-0.6,6.6c0,0.3,0,0.6,0,0.9H309.1z"/>
	<path class="st21" d="M259,35.8c0-0.1,0-0.2,0-0.3c0-2-0.1-3.9-0.3-5.6c-0.2-1.8-0.7-3.3-1.5-4.6c-0.8-1.3-2-2.4-3.5-3.1
		c-1.6-0.8-3.7-1.1-6.4-1.1c-2.6,0-4.7,0.4-6.2,1.2c-1.5,0.8-2.7,1.9-3.5,3.3c-0.8,1.4-1.4,2.9-1.6,4.6c-0.3,1.7-0.4,3.5-0.4,5.3
		c0,0.1,0,0.2,0,0.3H259z"/>
	<path class="st21" d="M99.6,34.3c0-1.8,0.5-3.1,1.4-3.8c0.9-0.7,2.2-1.1,3.8-1.1c0.4,0,0.7,0,1.1,0.1c0.4,0,0.8,0.1,1.2,0.2V21
		h-1.5c-1.4,0-2.6,0.4-3.7,1.3c-1.1,0.9-1.9,2.1-2.4,3.8h-0.1v-4.4h-8.9v14.1h9.2V34.3z"/>
	<path class="st21" d="M130.6,34.3c0-2.5-0.2-4.6-0.7-6.3c-0.5-1.7-1.2-3-2.1-4.1c-0.9-1-2.1-1.8-3.5-2.2c-1.4-0.4-3-0.7-4.8-0.7
		c-2.1,0-3.9,0.3-5.3,0.8c-1.5,0.5-2.7,1.4-3.6,2.5c-1,1.2-1.7,2.7-2.1,4.5c-0.4,1.8-0.7,4.1-0.7,6.7c0,0.1,0,0.2,0,0.3h22.8V34.3z"
		/>
	<polygon class="st21" points="143.6,27.9 147.2,27.9 147.2,21.7 143.6,21.7 143.6,13.6 134.4,13.6 134.4,21.7 131.4,21.7 
		131.4,27.9 134.4,27.9 134.4,35.8 143.6,35.8 	"/>
	<rect x="150.2" y="21.7" class="st21" width="9.2" height="14.1"/>
	<rect x="163.9" y="21.7" class="st21" width="9.2" height="14.1"/>
	<path class="st21" d="M186.7,34.3c0-1.8,0.5-3.1,1.4-3.8c0.9-0.7,2.2-1.1,3.8-1.1c0.4,0,0.7,0,1.1,0.1c0.4,0,0.8,0.1,1.2,0.2V21
		h-1.5c-1.4,0-2.6,0.4-3.7,1.3c-1.1,0.9-1.9,2.1-2.4,3.8h-0.1v-4.4h-8.9v14.1h9.2V34.3z"/>
	<path class="st21" d="M205.9,31.1c0-1.2,0.2-2,0.5-2.5c0.3-0.5,0.9-0.8,1.7-0.8s1.4,0.3,1.7,0.8c0.3,0.5,0.5,1.3,0.5,2.5v4.7h9.2
		v-7.3c0-1.5-0.2-2.7-0.6-3.7c-0.4-1-0.9-1.7-1.5-2.3c-0.6-0.6-1.4-1-2.3-1.2c-0.9-0.2-1.8-0.3-2.8-0.3c-3.3,0-5.5,1.4-6.7,4.1h-0.1
		v-3.4h-8.9v14.1h9.2V31.1z"/>
	<rect x="223.4" y="12.9" class="st21" width="9.2" height="22.9"/>
	<path class="st21" d="M283.3,29.9c0-1.8-0.3-3.3-0.8-4.4c-0.5-1.1-1.3-2-2.2-2.7c-1-0.7-2.1-1.1-3.5-1.4c-1.3-0.3-2.8-0.4-4.4-0.4
		c-1.1,0-2.2,0.1-3.4,0.3c-1.2,0.2-2.4,0.7-3.4,1.3c-1.1,0.7-1.9,1.6-2.7,2.8c-0.7,1.2-1.1,2.8-1.1,4.8h8c0-1.5,0.3-2.4,0.7-2.9
		c0.4-0.5,1.1-0.7,1.9-0.7c1.6,0,2.3,0.9,2.3,2.6c0,0.8-0.2,1.5-0.6,2c-0.4,0.5-1.1,0.8-2.1,1l-3.6,0.9c-1.5,0.3-2.7,0.8-3.7,1.2
		c-0.8,0.4-1.5,0.9-2.1,1.5h20.6V29.9z"/>
	<path class="st21" d="M329.3,34c-1-0.6-2-1.1-3.2-1.5c-1.1-0.3-2.2-0.7-3.2-1c-1-0.3-1.8-0.7-2.5-1c-0.7-0.4-1-1-1-1.8
		c0-0.7,0.2-1.2,0.7-1.6c0.4-0.4,1-0.6,1.7-0.6c0.8,0,1.4,0.2,1.8,0.6c0.4,0.4,0.6,1.2,0.6,2.4h8c0-5.8-3.5-8.7-10.4-8.7
		c-1.9,0-3.5,0.2-4.9,0.7c-1.4,0.4-2.5,1.1-3.4,1.8c-0.9,0.8-1.6,1.7-2,2.7c-0.4,1-0.7,2.2-0.7,3.4c0,1.7,0.3,3.1,1,4.2
		c0.5,0.8,1.1,1.4,1.7,2h17.6C330.6,35.1,330,34.5,329.3,34z"/>
	<path class="st21" d="M356.9,31.1c0-1.2,0.2-2,0.5-2.5c0.3-0.5,0.9-0.8,1.7-0.8s1.4,0.3,1.7,0.8c0.3,0.5,0.5,1.3,0.5,2.5v4.7h9.2
		v-7.3c0-1.5-0.2-2.7-0.6-3.7c-0.4-1-0.9-1.7-1.5-2.3c-0.6-0.6-1.4-1-2.3-1.2c-0.9-0.2-1.8-0.3-2.8-0.3c-3.3,0-5.5,1.4-6.7,4.1h-0.1
		v-3.4h-8.9v14.1h9.2V31.1z"/>
	<path class="st21" d="M395.2,34.3c0-2.5-0.2-4.6-0.7-6.3c-0.5-1.7-1.2-3-2.1-4.1c-0.9-1-2.1-1.8-3.5-2.2c-1.4-0.4-3-0.7-4.8-0.7
		c-2.1,0-3.9,0.3-5.3,0.8c-1.5,0.5-2.7,1.4-3.6,2.5c-1,1.2-1.6,2.7-2.1,4.5c-0.4,1.8-0.7,4.1-0.7,6.7c0,0.1,0,0.2,0,0.3h22.8V34.3z"
		/>
	<polygon class="st21" points="408.2,27.9 411.9,27.9 411.9,21.7 408.2,21.7 408.2,13.6 399.1,13.6 399.1,21.7 396,21.7 396,27.9 
		399.1,27.9 399.1,35.8 408.2,35.8 	"/>
	<path class="st21" d="M159.9,42.4c0.3,0.5,0.9,0.8,1.7,0.8c0.8,0,1.4-0.3,1.7-0.8c0.3-0.5,0.5-1.3,0.5-2.5v-4.1h-4.5v4.1
		C159.4,41.1,159.5,41.9,159.9,42.4z"/>
</g>
<g>
	<path class="st22" d="M98.7,56.9h1.6v6.8c0,1.2-0.1,2.1-0.4,2.8c-0.3,0.7-0.7,1.3-1.4,1.7c-0.7,0.4-1.6,0.7-2.7,0.7
		c-1.1,0-2-0.2-2.7-0.6c-0.7-0.4-1.2-0.9-1.5-1.6c-0.3-0.7-0.4-1.7-0.4-2.9v-6.8h1.6v6.8c0,1,0.1,1.8,0.3,2.2c0.2,0.5,0.5,0.9,1,1.1
		c0.5,0.3,1,0.4,1.7,0.4c1.1,0,2-0.3,2.4-0.8c0.5-0.5,0.7-1.5,0.7-3V56.9z"/>
	<path class="st22" d="M103,68.6V56.9h1.6v5.8l5.8-5.8h2.1l-4.9,4.7l5.1,7h-2l-4.2-5.9l-1.9,1.9v4.1H103z"/>
	<path class="st22" d="M114.1,58.5v-1.7h1.5v1.3c0,0.7-0.1,1.2-0.2,1.5c-0.2,0.4-0.6,0.8-1.1,1l-0.4-0.6c0.3-0.1,0.5-0.3,0.6-0.6
		c0.1-0.3,0.2-0.6,0.2-1H114.1z"/>
	<path class="st22" d="M117.3,66.1l1.4-0.2c0.1,0.6,0.3,1,0.7,1.3c0.4,0.3,0.9,0.5,1.5,0.5c0.7,0,1.2-0.1,1.5-0.4
		c0.3-0.3,0.5-0.6,0.5-0.9c0-0.3-0.1-0.6-0.4-0.8c-0.2-0.1-0.7-0.3-1.5-0.5c-1.1-0.3-1.8-0.5-2.2-0.7c-0.4-0.2-0.7-0.5-0.9-0.8
		c-0.2-0.3-0.3-0.7-0.3-1.1c0-0.4,0.1-0.7,0.3-1.1c0.2-0.3,0.4-0.6,0.7-0.8c0.2-0.2,0.5-0.3,0.9-0.4c0.4-0.1,0.8-0.2,1.2-0.2
		c0.7,0,1.3,0.1,1.8,0.3c0.5,0.2,0.9,0.5,1.1,0.8c0.2,0.3,0.4,0.8,0.5,1.3l-1.4,0.2c-0.1-0.4-0.2-0.8-0.6-1
		c-0.3-0.2-0.7-0.4-1.3-0.4c-0.7,0-1.1,0.1-1.4,0.3c-0.3,0.2-0.4,0.5-0.4,0.8c0,0.2,0.1,0.4,0.2,0.5c0.1,0.2,0.3,0.3,0.6,0.4
		c0.1,0.1,0.6,0.2,1.3,0.4c1,0.3,1.7,0.5,2.1,0.7c0.4,0.2,0.7,0.4,0.9,0.8c0.2,0.3,0.3,0.7,0.3,1.2c0,0.5-0.1,0.9-0.4,1.4
		c-0.3,0.4-0.7,0.8-1.2,1c-0.5,0.2-1.1,0.3-1.8,0.3c-1.1,0-1.9-0.2-2.5-0.7C117.8,67.7,117.4,67,117.3,66.1z"/>
	<path class="st22" d="M131.2,68.6V56.9h1.4v11.7H131.2z"/>
	<path class="st22" d="M141,65.9l1.5,0.2c-0.2,0.9-0.7,1.5-1.3,2c-0.6,0.5-1.4,0.7-2.4,0.7c-1.2,0-2.2-0.4-3-1.1
		c-0.7-0.8-1.1-1.8-1.1-3.2c0-1.4,0.4-2.5,1.1-3.3c0.7-0.8,1.7-1.2,2.9-1.2c1.1,0,2.1,0.4,2.8,1.2c0.7,0.8,1.1,1.9,1.1,3.3
		c0,0.1,0,0.2,0,0.4h-6.3c0.1,0.9,0.3,1.6,0.8,2.1c0.5,0.5,1.1,0.7,1.8,0.7c0.5,0,1-0.1,1.4-0.4C140.5,67,140.8,66.5,141,65.9z
		 M136.3,63.6h4.7c-0.1-0.7-0.2-1.2-0.5-1.6c-0.5-0.6-1.1-0.8-1.8-0.8c-0.7,0-1.2,0.2-1.7,0.7C136.6,62.3,136.3,62.8,136.3,63.6z"/>
	<path class="st22" d="M150.2,67.6c-0.5,0.5-1,0.8-1.5,1c-0.5,0.2-1,0.3-1.6,0.3c-0.9,0-1.6-0.2-2.2-0.7c-0.5-0.5-0.8-1-0.8-1.7
		c0-0.4,0.1-0.8,0.3-1.1c0.2-0.3,0.4-0.6,0.7-0.8c0.3-0.2,0.7-0.4,1-0.5c0.3-0.1,0.7-0.1,1.3-0.2c1.2-0.1,2-0.3,2.6-0.5
		c0-0.2,0-0.3,0-0.4c0-0.6-0.1-1-0.4-1.2c-0.4-0.3-0.9-0.5-1.6-0.5c-0.7,0-1.2,0.1-1.5,0.4c-0.3,0.2-0.6,0.7-0.7,1.3l-1.4-0.2
		c0.1-0.6,0.3-1.1,0.6-1.5c0.3-0.4,0.7-0.7,1.3-0.9c0.6-0.2,1.2-0.3,1.9-0.3c0.7,0,1.3,0.1,1.8,0.3c0.5,0.2,0.8,0.4,1,0.6
		c0.2,0.3,0.4,0.6,0.4,1c0,0.2,0.1,0.7,0.1,1.3v1.9c0,1.3,0,2.2,0.1,2.5c0.1,0.4,0.2,0.7,0.4,1h-1.5C150.3,68.3,150.2,68,150.2,67.6
		z M150,64.4c-0.5,0.2-1.3,0.4-2.3,0.5c-0.6,0.1-1,0.2-1.3,0.3c-0.2,0.1-0.4,0.3-0.6,0.5c-0.1,0.2-0.2,0.4-0.2,0.7
		c0,0.4,0.1,0.7,0.4,1c0.3,0.3,0.7,0.4,1.3,0.4c0.6,0,1-0.1,1.5-0.4c0.4-0.2,0.7-0.6,1-1c0.2-0.3,0.2-0.8,0.2-1.4V64.4z"/>
	<path class="st22" d="M159.6,68.6v-1.1c-0.5,0.8-1.3,1.3-2.4,1.3c-0.7,0-1.3-0.2-1.9-0.6c-0.6-0.4-1-0.9-1.3-1.6
		c-0.3-0.7-0.5-1.4-0.5-2.3c0-0.8,0.1-1.6,0.4-2.3c0.3-0.7,0.7-1.2,1.3-1.6c0.6-0.4,1.2-0.6,1.9-0.6c0.5,0,1,0.1,1.4,0.3
		c0.4,0.2,0.7,0.5,1,0.8v-4.2h1.4v11.7H159.6z M155,64.4c0,1.1,0.2,1.9,0.7,2.4c0.5,0.5,1,0.8,1.6,0.8c0.6,0,1.2-0.3,1.6-0.8
		c0.4-0.5,0.7-1.3,0.7-2.4c0-1.2-0.2-2-0.7-2.6c-0.4-0.5-1-0.8-1.7-0.8c-0.6,0-1.2,0.3-1.6,0.8C155.2,62.5,155,63.3,155,64.4z"/>
	<path class="st22" d="M163.5,58.6v-1.7h1.4v1.7H163.5z M163.5,68.6v-8.5h1.4v8.5H163.5z"/>
	<path class="st22" d="M167.5,68.6v-8.5h1.3v1.2c0.6-0.9,1.5-1.4,2.7-1.4c0.5,0,1,0.1,1.4,0.3c0.4,0.2,0.8,0.4,1,0.7
		c0.2,0.3,0.4,0.7,0.4,1.1c0.1,0.3,0.1,0.7,0.1,1.4v5.2h-1.4v-5.2c0-0.6-0.1-1-0.2-1.3c-0.1-0.3-0.3-0.5-0.6-0.7
		c-0.3-0.2-0.6-0.3-1-0.3c-0.6,0-1.1,0.2-1.6,0.6c-0.4,0.4-0.7,1.1-0.7,2.2v4.6H167.5z"/>
	<path class="st22" d="M176.6,69.3l1.4,0.2c0.1,0.4,0.2,0.7,0.5,0.9c0.4,0.3,0.8,0.4,1.5,0.4c0.7,0,1.2-0.1,1.5-0.4
		c0.4-0.3,0.6-0.6,0.7-1.1c0.1-0.3,0.1-0.9,0.1-1.8c-0.6,0.7-1.4,1.1-2.3,1.1c-1.2,0-2.1-0.4-2.7-1.3c-0.6-0.8-1-1.9-1-3
		c0-0.8,0.1-1.6,0.4-2.2c0.3-0.7,0.7-1.2,1.3-1.6c0.6-0.4,1.2-0.6,2-0.6c1,0,1.8,0.4,2.5,1.2v-1h1.3v7.3c0,1.3-0.1,2.3-0.4,2.8
		c-0.3,0.6-0.7,1-1.3,1.3c-0.6,0.3-1.3,0.5-2.2,0.5c-1,0-1.8-0.2-2.5-0.7C176.9,71,176.6,70.3,176.6,69.3z M177.8,64.3
		c0,1.1,0.2,1.9,0.7,2.4c0.4,0.5,1,0.8,1.7,0.8c0.7,0,1.2-0.3,1.7-0.8c0.4-0.5,0.7-1.3,0.7-2.4c0-1-0.2-1.8-0.7-2.3
		c-0.5-0.5-1-0.8-1.7-0.8c-0.6,0-1.2,0.3-1.6,0.8C178,62.5,177.8,63.2,177.8,64.3z"/>
	<path class="st22" d="M191.2,68.6v-8.5h1.3v1.3c0.3-0.6,0.6-1,0.9-1.2c0.3-0.2,0.6-0.3,0.9-0.3c0.5,0,1,0.2,1.5,0.5l-0.5,1.3
		c-0.4-0.2-0.7-0.3-1.1-0.3c-0.3,0-0.6,0.1-0.8,0.3c-0.3,0.2-0.4,0.5-0.5,0.8c-0.2,0.5-0.2,1.1-0.2,1.7v4.4H191.2z"/>
	<path class="st22" d="M196.4,64.4c0-1.6,0.4-2.7,1.3-3.5c0.7-0.6,1.6-0.9,2.7-0.9c1.2,0,2.1,0.4,2.9,1.1c0.7,0.8,1.1,1.8,1.1,3.2
		c0,1.1-0.2,2-0.5,2.6c-0.3,0.6-0.8,1.1-1.4,1.5c-0.6,0.3-1.3,0.5-2.1,0.5c-1.2,0-2.1-0.4-2.9-1.1C196.8,66.9,196.4,65.8,196.4,64.4
		z M197.9,64.4c0,1.1,0.2,1.9,0.7,2.4c0.5,0.5,1.1,0.8,1.8,0.8c0.7,0,1.3-0.3,1.8-0.8c0.5-0.5,0.7-1.4,0.7-2.5c0-1-0.2-1.8-0.7-2.4
		c-0.5-0.5-1.1-0.8-1.8-0.8c-0.7,0-1.3,0.3-1.8,0.8C198.2,62.5,197.9,63.3,197.9,64.4z"/>
	<path class="st22" d="M211.9,67.6c-0.5,0.5-1,0.8-1.5,1c-0.5,0.2-1,0.3-1.6,0.3c-0.9,0-1.7-0.2-2.2-0.7c-0.5-0.5-0.8-1-0.8-1.7
		c0-0.4,0.1-0.8,0.3-1.1c0.2-0.3,0.4-0.6,0.7-0.8c0.3-0.2,0.7-0.4,1-0.5c0.3-0.1,0.7-0.1,1.3-0.2c1.2-0.1,2-0.3,2.6-0.5
		c0-0.2,0-0.3,0-0.4c0-0.6-0.1-1-0.4-1.2c-0.4-0.3-0.9-0.5-1.6-0.5c-0.7,0-1.2,0.1-1.5,0.4c-0.3,0.2-0.6,0.7-0.7,1.3l-1.4-0.2
		c0.1-0.6,0.3-1.1,0.6-1.5c0.3-0.4,0.7-0.7,1.3-0.9c0.6-0.2,1.2-0.3,1.9-0.3c0.7,0,1.3,0.1,1.8,0.3c0.5,0.2,0.8,0.4,1,0.6
		c0.2,0.3,0.4,0.6,0.4,1c0,0.2,0.1,0.7,0.1,1.3v1.9c0,1.3,0,2.2,0.1,2.5c0.1,0.4,0.2,0.7,0.4,1h-1.5C212.1,68.3,212,68,211.9,67.6z
		 M211.8,64.4c-0.5,0.2-1.3,0.4-2.4,0.5c-0.6,0.1-1,0.2-1.3,0.3c-0.2,0.1-0.4,0.3-0.6,0.5c-0.1,0.2-0.2,0.4-0.2,0.7
		c0,0.4,0.1,0.7,0.4,1c0.3,0.3,0.7,0.4,1.3,0.4c0.6,0,1-0.1,1.5-0.4c0.4-0.2,0.7-0.6,1-1c0.2-0.3,0.2-0.8,0.2-1.4V64.4z"/>
	<path class="st22" d="M221.3,68.6v-1.1c-0.5,0.8-1.3,1.3-2.4,1.3c-0.7,0-1.3-0.2-1.9-0.6c-0.6-0.4-1-0.9-1.3-1.6
		c-0.3-0.7-0.5-1.4-0.5-2.3c0-0.8,0.1-1.6,0.4-2.3c0.3-0.7,0.7-1.2,1.3-1.6c0.6-0.4,1.2-0.6,1.9-0.6c0.5,0,1,0.1,1.4,0.3
		c0.4,0.2,0.7,0.5,1,0.8v-4.2h1.4v11.7H221.3z M216.8,64.4c0,1.1,0.2,1.9,0.7,2.4c0.5,0.5,1,0.8,1.6,0.8c0.6,0,1.2-0.3,1.6-0.8
		c0.4-0.5,0.7-1.3,0.7-2.4c0-1.2-0.2-2-0.7-2.6c-0.4-0.5-1-0.8-1.7-0.8c-0.6,0-1.2,0.3-1.6,0.8C217,62.5,216.8,63.3,216.8,64.4z"/>
	<path class="st22" d="M230.1,68.6V56.9h1.4v4.2c0.7-0.8,1.5-1.2,2.5-1.2c0.6,0,1.2,0.1,1.6,0.4c0.5,0.2,0.8,0.6,1,1
		c0.2,0.4,0.3,1.1,0.3,1.9v5.4h-1.4v-5.4c0-0.7-0.2-1.2-0.5-1.6c-0.3-0.3-0.8-0.5-1.3-0.5c-0.4,0-0.8,0.1-1.2,0.3
		c-0.4,0.2-0.6,0.5-0.8,0.9c-0.2,0.4-0.2,0.9-0.2,1.6v4.6H230.1z"/>
	<path class="st22" d="M245.1,67.6c-0.5,0.5-1,0.8-1.5,1c-0.5,0.2-1,0.3-1.6,0.3c-0.9,0-1.6-0.2-2.2-0.7c-0.5-0.5-0.8-1-0.8-1.7
		c0-0.4,0.1-0.8,0.3-1.1c0.2-0.3,0.4-0.6,0.7-0.8c0.3-0.2,0.7-0.4,1-0.5c0.3-0.1,0.7-0.1,1.3-0.2c1.2-0.1,2-0.3,2.6-0.5
		c0-0.2,0-0.3,0-0.4c0-0.6-0.1-1-0.4-1.2c-0.4-0.3-0.9-0.5-1.6-0.5c-0.7,0-1.2,0.1-1.5,0.4c-0.3,0.2-0.6,0.7-0.7,1.3l-1.4-0.2
		c0.1-0.6,0.3-1.1,0.6-1.5s0.7-0.7,1.3-0.9c0.6-0.2,1.2-0.3,1.9-0.3c0.7,0,1.3,0.1,1.8,0.3c0.5,0.2,0.8,0.4,1,0.6
		c0.2,0.3,0.4,0.6,0.4,1c0,0.2,0.1,0.7,0.1,1.3v1.9c0,1.3,0,2.2,0.1,2.5c0.1,0.4,0.2,0.7,0.4,1h-1.5C245.2,68.3,245.2,68,245.1,67.6
		z M245,64.4c-0.5,0.2-1.3,0.4-2.4,0.5c-0.6,0.1-1,0.2-1.3,0.3c-0.2,0.1-0.4,0.3-0.6,0.5c-0.1,0.2-0.2,0.4-0.2,0.7
		c0,0.4,0.1,0.7,0.4,1c0.3,0.3,0.7,0.4,1.3,0.4c0.6,0,1-0.1,1.5-0.4c0.4-0.2,0.7-0.6,1-1c0.2-0.3,0.2-0.8,0.2-1.4V64.4z"/>
	<path class="st22" d="M254.6,68.6v-1.2c-0.7,1-1.6,1.4-2.7,1.4c-0.5,0-1-0.1-1.4-0.3c-0.4-0.2-0.8-0.4-1-0.7
		c-0.2-0.3-0.4-0.6-0.4-1.1c-0.1-0.3-0.1-0.7-0.1-1.3v-5.3h1.4v4.7c0,0.8,0,1.3,0.1,1.5c0.1,0.4,0.3,0.7,0.6,0.9
		c0.3,0.2,0.7,0.3,1.1,0.3s0.8-0.1,1.2-0.3c0.4-0.2,0.6-0.5,0.8-0.9c0.2-0.4,0.2-0.9,0.2-1.7v-4.5h1.4v8.5H254.6z"/>
	<path class="st22" d="M258.4,68.6V56.9h1.4v11.7H258.4z"/>
	<path class="st22" d="M267.9,67.6c-0.5,0.5-1,0.8-1.5,1c-0.5,0.2-1,0.3-1.6,0.3c-0.9,0-1.6-0.2-2.2-0.7c-0.5-0.5-0.8-1-0.8-1.7
		c0-0.4,0.1-0.8,0.3-1.1c0.2-0.3,0.4-0.6,0.7-0.8c0.3-0.2,0.7-0.4,1-0.5c0.3-0.1,0.7-0.1,1.3-0.2c1.2-0.1,2-0.3,2.6-0.5
		c0-0.2,0-0.3,0-0.4c0-0.6-0.1-1-0.4-1.2c-0.4-0.3-0.9-0.5-1.6-0.5c-0.7,0-1.2,0.1-1.5,0.4c-0.3,0.2-0.6,0.7-0.7,1.3l-1.4-0.2
		c0.1-0.6,0.3-1.1,0.6-1.5s0.7-0.7,1.3-0.9c0.6-0.2,1.2-0.3,1.9-0.3c0.7,0,1.3,0.1,1.8,0.3c0.5,0.2,0.8,0.4,1,0.6
		c0.2,0.3,0.4,0.6,0.4,1c0,0.2,0.1,0.7,0.1,1.3v1.9c0,1.3,0,2.2,0.1,2.5c0.1,0.4,0.2,0.7,0.4,1h-1.5C268.1,68.3,268,68,267.9,67.6z
		 M267.8,64.4c-0.5,0.2-1.3,0.4-2.4,0.5c-0.6,0.1-1,0.2-1.3,0.3c-0.2,0.1-0.4,0.3-0.6,0.5c-0.1,0.2-0.2,0.4-0.2,0.7
		c0,0.4,0.1,0.7,0.4,1c0.3,0.3,0.7,0.4,1.3,0.4c0.6,0,1-0.1,1.5-0.4c0.4-0.2,0.7-0.6,1-1c0.2-0.3,0.2-0.8,0.2-1.4V64.4z"/>
	<path class="st22" d="M271.6,69.3l1.4,0.2c0.1,0.4,0.2,0.7,0.5,0.9c0.4,0.3,0.8,0.4,1.5,0.4c0.7,0,1.2-0.1,1.5-0.4
		c0.4-0.3,0.6-0.6,0.7-1.1c0.1-0.3,0.1-0.9,0.1-1.8c-0.6,0.7-1.4,1.1-2.3,1.1c-1.2,0-2.1-0.4-2.7-1.3c-0.6-0.8-1-1.9-1-3
		c0-0.8,0.1-1.6,0.4-2.2c0.3-0.7,0.7-1.2,1.3-1.6c0.6-0.4,1.2-0.6,2-0.6c1,0,1.8,0.4,2.5,1.2v-1h1.3v7.3c0,1.3-0.1,2.3-0.4,2.8
		c-0.3,0.6-0.7,1-1.3,1.3c-0.6,0.3-1.3,0.5-2.2,0.5c-1,0-1.8-0.2-2.5-0.7C271.8,71,271.5,70.3,271.6,69.3z M272.8,64.3
		c0,1.1,0.2,1.9,0.7,2.4c0.4,0.5,1,0.8,1.7,0.8c0.7,0,1.2-0.3,1.7-0.8c0.4-0.5,0.7-1.3,0.7-2.4c0-1-0.2-1.8-0.7-2.3s-1-0.8-1.7-0.8
		c-0.6,0-1.2,0.3-1.6,0.8C273,62.5,272.8,63.2,272.8,64.3z"/>
	<path class="st22" d="M287.1,65.9l1.5,0.2c-0.2,0.9-0.7,1.5-1.3,2c-0.6,0.5-1.4,0.7-2.4,0.7c-1.2,0-2.2-0.4-3-1.1
		c-0.7-0.8-1.1-1.8-1.1-3.2c0-1.4,0.4-2.5,1.1-3.3s1.7-1.2,2.9-1.2c1.1,0,2.1,0.4,2.8,1.2c0.7,0.8,1.1,1.9,1.1,3.3
		c0,0.1,0,0.2,0,0.4h-6.3c0.1,0.9,0.3,1.6,0.8,2.1c0.5,0.5,1.1,0.7,1.8,0.7c0.5,0,1-0.1,1.4-0.4C286.6,67,286.9,66.5,287.1,65.9z
		 M282.3,63.6h4.7c-0.1-0.7-0.2-1.2-0.5-1.6c-0.5-0.6-1.1-0.8-1.8-0.8c-0.7,0-1.2,0.2-1.7,0.7C282.6,62.3,282.4,62.8,282.3,63.6z"/>
	<path class="st22" d="M295.6,68.6v-8.5h1.3v1.2c0.3-0.4,0.6-0.7,1.1-1c0.4-0.3,0.9-0.4,1.5-0.4c0.6,0,1.1,0.1,1.5,0.4
		c0.4,0.3,0.7,0.6,0.9,1.1c0.7-1,1.5-1.5,2.6-1.5c0.8,0,1.5,0.2,1.9,0.7c0.5,0.5,0.7,1.2,0.7,2.2v5.8h-1.4v-5.3c0-0.6,0-1-0.1-1.2
		c-0.1-0.3-0.3-0.5-0.5-0.6c-0.2-0.2-0.5-0.2-0.9-0.2c-0.6,0-1.1,0.2-1.5,0.6c-0.4,0.4-0.6,1-0.6,1.9v4.9h-1.4v-5.5
		c0-0.6-0.1-1.1-0.4-1.4c-0.2-0.3-0.6-0.5-1.2-0.5c-0.4,0-0.8,0.1-1.1,0.3c-0.3,0.2-0.6,0.5-0.7,0.9c-0.2,0.4-0.2,1-0.2,1.8v4.4
		H295.6z"/>
	<path class="st22" d="M315.1,67.6c-0.5,0.5-1,0.8-1.5,1c-0.5,0.2-1,0.3-1.6,0.3c-0.9,0-1.6-0.2-2.2-0.7c-0.5-0.5-0.8-1-0.8-1.7
		c0-0.4,0.1-0.8,0.3-1.1c0.2-0.3,0.4-0.6,0.7-0.8c0.3-0.2,0.7-0.4,1-0.5c0.3-0.1,0.7-0.1,1.3-0.2c1.2-0.1,2-0.3,2.6-0.5
		c0-0.2,0-0.3,0-0.4c0-0.6-0.1-1-0.4-1.2c-0.4-0.3-0.9-0.5-1.6-0.5c-0.7,0-1.2,0.1-1.5,0.4c-0.3,0.2-0.6,0.7-0.7,1.3l-1.4-0.2
		c0.1-0.6,0.3-1.1,0.6-1.5s0.7-0.7,1.3-0.9c0.6-0.2,1.2-0.3,1.9-0.3c0.7,0,1.3,0.1,1.8,0.3c0.5,0.2,0.8,0.4,1,0.6
		c0.2,0.3,0.4,0.6,0.4,1c0,0.2,0.1,0.7,0.1,1.3v1.9c0,1.3,0,2.2,0.1,2.5c0.1,0.4,0.2,0.7,0.4,1h-1.5C315.2,68.3,315.1,68,315.1,67.6
		z M315,64.4c-0.5,0.2-1.3,0.4-2.4,0.5c-0.6,0.1-1,0.2-1.3,0.3c-0.2,0.1-0.4,0.3-0.6,0.5c-0.1,0.2-0.2,0.4-0.2,0.7
		c0,0.4,0.1,0.7,0.4,1c0.3,0.3,0.7,0.4,1.3,0.4c0.6,0,1-0.1,1.5-0.4c0.4-0.2,0.7-0.6,1-1c0.2-0.3,0.2-0.8,0.2-1.4V64.4z"/>
	<path class="st22" d="M318.9,68.6v-8.5h1.3v1.3c0.3-0.6,0.6-1,0.9-1.2c0.3-0.2,0.6-0.3,0.9-0.3c0.5,0,1,0.2,1.5,0.5l-0.5,1.3
		c-0.4-0.2-0.7-0.3-1.1-0.3c-0.3,0-0.6,0.1-0.8,0.3c-0.3,0.2-0.4,0.5-0.5,0.8c-0.2,0.5-0.2,1.1-0.2,1.7v4.4H318.9z"/>
	<path class="st22" d="M324.8,68.6V56.9h1.4v6.7l3.4-3.5h1.9l-3.2,3.1l3.6,5.3H330l-2.8-4.3l-1,1v3.4H324.8z"/>
	<path class="st22" d="M339.1,65.9l1.5,0.2c-0.2,0.9-0.7,1.5-1.3,2c-0.6,0.5-1.4,0.7-2.4,0.7c-1.2,0-2.2-0.4-3-1.1
		c-0.7-0.8-1.1-1.8-1.1-3.2c0-1.4,0.4-2.5,1.1-3.3s1.7-1.2,2.9-1.2c1.1,0,2.1,0.4,2.8,1.2c0.7,0.8,1.1,1.9,1.1,3.3
		c0,0.1,0,0.2,0,0.4h-6.3c0.1,0.9,0.3,1.6,0.8,2.1c0.5,0.5,1.1,0.7,1.8,0.7c0.5,0,1-0.1,1.4-0.4C338.6,67,338.8,66.5,339.1,65.9z
		 M334.3,63.6h4.7c-0.1-0.7-0.2-1.2-0.5-1.6c-0.5-0.6-1.1-0.8-1.8-0.8c-0.7,0-1.2,0.2-1.7,0.7C334.6,62.3,334.4,62.8,334.3,63.6z"/>
	<path class="st22" d="M345.8,67.4l0.2,1.3c-0.4,0.1-0.8,0.1-1.1,0.1c-0.5,0-0.9-0.1-1.2-0.2c-0.3-0.2-0.5-0.4-0.6-0.7
		c-0.1-0.3-0.2-0.8-0.2-1.7v-4.9h-1.1v-1.1h1.1v-2.1l1.4-0.9v3h1.4v1.1h-1.4v5c0,0.4,0,0.7,0.1,0.8c0.1,0.1,0.1,0.2,0.2,0.3
		c0.1,0.1,0.3,0.1,0.5,0.1C345.4,67.4,345.6,67.4,345.8,67.4z"/>
	<path class="st22" d="M347.6,71.9V60.2h1.3v1.1c0.3-0.4,0.7-0.8,1-1c0.4-0.2,0.9-0.3,1.4-0.3c0.7,0,1.4,0.2,1.9,0.6
		c0.6,0.4,1,0.9,1.3,1.6c0.3,0.7,0.4,1.4,0.4,2.2c0,0.9-0.2,1.7-0.5,2.3c-0.3,0.7-0.8,1.2-1.4,1.6c-0.6,0.4-1.2,0.6-1.9,0.6
		c-0.5,0-0.9-0.1-1.3-0.3c-0.4-0.2-0.7-0.5-0.9-0.8v4.1H347.6z M348.9,64.4c0,1.1,0.2,1.9,0.7,2.4c0.4,0.5,1,0.8,1.6,0.8
		c0.6,0,1.2-0.3,1.6-0.8c0.5-0.5,0.7-1.4,0.7-2.5c0-1.1-0.2-1.9-0.7-2.4s-1-0.8-1.6-0.8c-0.6,0-1.2,0.3-1.6,0.9
		C349.1,62.5,348.9,63.4,348.9,64.4z"/>
	<path class="st22" d="M357,68.6V56.9h1.4v11.7H357z"/>
	<path class="st22" d="M366.5,67.6c-0.5,0.5-1,0.8-1.5,1c-0.5,0.2-1,0.3-1.6,0.3c-0.9,0-1.6-0.2-2.2-0.7c-0.5-0.5-0.8-1-0.8-1.7
		c0-0.4,0.1-0.8,0.3-1.1c0.2-0.3,0.4-0.6,0.7-0.8c0.3-0.2,0.7-0.4,1-0.5c0.3-0.1,0.7-0.1,1.3-0.2c1.2-0.1,2-0.3,2.6-0.5
		c0-0.2,0-0.3,0-0.4c0-0.6-0.1-1-0.4-1.2c-0.4-0.3-0.9-0.5-1.6-0.5c-0.7,0-1.2,0.1-1.5,0.4c-0.3,0.2-0.6,0.7-0.7,1.3l-1.4-0.2
		c0.1-0.6,0.3-1.1,0.6-1.5s0.7-0.7,1.3-0.9c0.6-0.2,1.2-0.3,1.9-0.3c0.7,0,1.3,0.1,1.8,0.3c0.5,0.2,0.8,0.4,1,0.6
		c0.2,0.3,0.4,0.6,0.4,1c0,0.2,0.1,0.7,0.1,1.3v1.9c0,1.3,0,2.2,0.1,2.5c0.1,0.4,0.2,0.7,0.4,1h-1.5C366.6,68.3,366.5,68,366.5,67.6
		z M366.4,64.4c-0.5,0.2-1.3,0.4-2.4,0.5c-0.6,0.1-1,0.2-1.3,0.3c-0.2,0.1-0.4,0.3-0.6,0.5c-0.1,0.2-0.2,0.4-0.2,0.7
		c0,0.4,0.1,0.7,0.4,1c0.3,0.3,0.7,0.4,1.3,0.4c0.6,0,1-0.1,1.5-0.4c0.4-0.2,0.7-0.6,1-1c0.2-0.3,0.2-0.8,0.2-1.4V64.4z"/>
	<path class="st22" d="M375.9,65.5l1.4,0.2c-0.2,1-0.6,1.7-1.2,2.3c-0.6,0.6-1.4,0.8-2.3,0.8c-1.2,0-2.1-0.4-2.8-1.1
		c-0.7-0.8-1.1-1.8-1.1-3.3c0-0.9,0.2-1.7,0.5-2.4c0.3-0.7,0.8-1.2,1.4-1.5c0.6-0.3,1.3-0.5,2-0.5c0.9,0,1.7,0.2,2.3,0.7
		c0.6,0.5,1,1.1,1.1,2l-1.4,0.2c-0.1-0.6-0.4-1-0.7-1.3c-0.3-0.3-0.7-0.4-1.2-0.4c-0.7,0-1.3,0.3-1.8,0.8c-0.5,0.5-0.7,1.3-0.7,2.5
		c0,1.1,0.2,2,0.7,2.5c0.4,0.5,1,0.8,1.7,0.8c0.6,0,1-0.2,1.4-0.5C375.6,66.8,375.8,66.3,375.9,65.5z"/>
	<path class="st22" d="M384.7,65.9l1.5,0.2c-0.2,0.9-0.7,1.5-1.3,2c-0.6,0.5-1.4,0.7-2.4,0.7c-1.2,0-2.2-0.4-3-1.1
		c-0.7-0.8-1.1-1.8-1.1-3.2c0-1.4,0.4-2.5,1.1-3.3c0.7-0.8,1.7-1.2,2.9-1.2c1.1,0,2.1,0.4,2.8,1.2c0.7,0.8,1.1,1.9,1.1,3.3
		c0,0.1,0,0.2,0,0.4h-6.3c0.1,0.9,0.3,1.6,0.8,2.1c0.5,0.5,1.1,0.7,1.8,0.7c0.5,0,1-0.1,1.4-0.4C384.2,67,384.5,66.5,384.7,65.9z
		 M380,63.6h4.7c-0.1-0.7-0.2-1.2-0.5-1.6c-0.5-0.6-1.1-0.8-1.8-0.8c-0.7,0-1.2,0.2-1.7,0.7C380.3,62.3,380,62.8,380,63.6z"/>
</g>
</svg>
