<?xml version="1.0" encoding="utf-8"?>
<!-- Generator: Adobe Illustrator 19.0.0, SVG Export Plug-In . SVG Version: 6.00 Build 0)  -->
<svg version="1.1" id="Layer_1" xmlns="http://www.w3.org/2000/svg" xmlns:xlink="http://www.w3.org/1999/xlink" x="0px" y="0px"
	 viewBox="-214 261.3 72.2 74" style="enable-background:new -214 261.3 72.2 74;" xml:space="preserve">
<style type="text/css">
	.st0{fill:url(#SVGID_1_);}
	.st1{fill:url(#SVGID_2_);}
	.st2{fill:url(#SVGID_3_);}
	.st3{fill:url(#SVGID_4_);}
	.st4{fill:#1D1D1B;}
</style>
<g>
	<g>
		
			<linearGradient id="SVGID_1_" gradientUnits="userSpaceOnUse" x1="-221.2379" y1="301.5808" x2="-204.2437" y2="300" gradientTransform="matrix(1 0 0 -1 0 595.64)">
			<stop  offset="0" style="stop-color:#FF6F3C"/>
			<stop  offset="0.5031" style="stop-color:#E03D2E"/>
			<stop  offset="1" style="stop-color:#651200"/>
		</linearGradient>
		<path class="st0" d="M-187.5,299.6l3.1-38l-1.4-0.3l-7.3,4.6c0.9,2.1,0.8,4.4-0.7,6.6c-2.4,3.3-5,6.4-7.1,9.9
			c-0.5,0.8-1,1.5-1.6,2c-1.3,2.5-2.1,5.2-2.4,8.7c-0.5,5.9-2.2,13.1-0.7,19.1c1.5,5.9,6.3,11.5,11.2,15.1c4.7,3.5,9.3,4.8,14.5,6.7
			v-0.1c0.1-0.3,0.2-0.6,0.3-0.9c-10-3.1-20.8-10.7-20.8-27.7c0-7,2.2-11.1,4.3-13.5l6.9,7.6L-187.5,299.6z"/>
		
			<linearGradient id="SVGID_2_" gradientUnits="userSpaceOnUse" x1="-167.7066" y1="318.481" x2="-199.3229" y2="275.0087" gradientTransform="matrix(1 0 0 -1 0 595.64)">
			<stop  offset="0" style="stop-color:#FFCF3C"/>
			<stop  offset="0.2515" style="stop-color:#FF6F3C"/>
			<stop  offset="0.5153" style="stop-color:#E03D2E"/>
			<stop  offset="1" style="stop-color:#5B1200"/>
		</linearGradient>
		<path class="st1" d="M-169.5,333c-10.1,0-32.5-5.1-32.5-29.5c0-7,2.2-11.1,4.3-13.5l8.4,9.2l3.4-37.9l-28.1,10.5l6.5,7.3
			c-3,5.4-4.8,11.7-4.8,18.3c0,20.9,17,37.9,37.9,37.9c6.5,0,12.5-1.6,17.9-4.5C-156.4,330.8-162.4,333-169.5,333z"/>
		
			<linearGradient id="SVGID_3_" gradientUnits="userSpaceOnUse" x1="-166.5975" y1="291.4607" x2="-170.5578" y2="286.5752" gradientTransform="matrix(1 0 0 -1 0 595.64)">
			<stop  offset="0" style="stop-color:#00143C"/>
			<stop  offset="0.5031" style="stop-color:#30438E"/>
			<stop  offset="0.7178" style="stop-color:#30438E"/>
			<stop  offset="1" style="stop-color:#30A1DD"/>
		</linearGradient>
		<path class="st2" d="M-143.1,279.9c-1.2-5.9-8.3-16.1-19.6-17.9c0,0,10.8,2.5,10.8,8.9c0,5.1-6.7,12.8-11,17.2l-9.4-9.1l-1.3,1.4
			l-0.9,32.4l32.7-1.8v-2.6l-9.7-9.3C-149,296.1-142.4,283.4-143.1,279.9z"/>
		
			<linearGradient id="SVGID_4_" gradientUnits="userSpaceOnUse" x1="-174.745" y1="280.8352" x2="-144.3148" y2="319.1693" gradientTransform="matrix(1 0 0 -1 0 595.64)">
			<stop  offset="0" style="stop-color:#00143C"/>
			<stop  offset="0.5031" style="stop-color:#30438E"/>
			<stop  offset="0.7914" style="stop-color:#30519A"/>
			<stop  offset="0.8443" style="stop-color:#3061A7"/>
			<stop  offset="0.9465" style="stop-color:#3089C9"/>
			<stop  offset="1" style="stop-color:#30A1DD"/>
		</linearGradient>
		<path class="st3" d="M-141.9,282.3c0-11.2-9.5-18.5-20.8-20.3c0,0,11.7,3.2,11.7,9.6c0,5.1-7.7,14.8-12,19.2l-10.7-10.3l-4.4,35.8
			l36.2-5.2l-9.7-9.3C-149,298.8-141.9,290.1-141.9,282.3z"/>
		<path class="st4" d="M-188.9,299.5"/>
	</g>
</g>
</svg>
